{
    "asset" : {
        "generator" : "Khronos glTF Blender I/O v1.6.16",
        "version" : "2.0"
    },
    "scene" : 0,
    "scenes" : [
        {
            "extras" : {
                "vr_landmarks" : [
                    {
                        "type" : 0
                    }
                ],
                "blenderkitUI" : {
                    "asset_type" : 2,
                    "dragging" : 0,
                    "assetbar_on" : 0,
                    "turn_off" : 0,
                    "margin" : 0,
                    "thumb_size" : 96,
                    "bar_x" : 78,
                    "bar_end" : 320,
                    "bar_width" : 677,
                    "wcount" : 6,
                    "hcount" : 1,
                    "bar_height" : 96,
                    "bar_y" : 408,
                    "reports_y" : 212,
                    "reports_x" : 78,
                    "rating_x" : 78,
                    "rating_y" : 312,
                    "mouse_x" : 624,
                    "mouse_y" : 473,
                    "has_hit" : 0,
                    "active_index" : -3,
                    "draw_drag_image" : 0,
                    "draw_snapped_bounds" : 0,
                    "draw_tooltip" : 0,
                    "drawoffset" : 35,
                    "tooltip" : ""
                },
                "blenderkit_models" : {
                    "is_searching" : 1,
                    "report" : "BlenderKit searching...."
                },
                "blenderkit_mat" : {
                    "is_searching" : 0,
                    "report" : "Found 31 results. ",
                    "search_keywords" : "ice",
                    "search_error" : 0
                },
                "uuid" : "f4351296-5a89-47b2-bb3c-1673441830d1",
                "blenderkit_HDR" : {
                    "is_searching" : 1,
                    "report" : "BlenderKit searching...."
                },
                "sun_pos_properties" : {
                    "day_of_year" : 151
                },
                "b_settings" : 0,
                "b_export" : 0,
                "export_path" : "C:\\Users\\TOSHIBA\\Desktop\\esss\\",
                "s_output" : "exporting...",
                "b_cubemap" : 1,
                "b_cubemap_background" : 1,
                "b_renderer" : 1,
                "b_player" : 0,
                "b_interactive" : 1,
                "s_showhide_object" : "Cube.001",
                "b_bake_lightmap" : 0,
                "b_joystick" : 1,
                "b_cast_shadows" : 1,
                "s_aframe_version" : "1.2.0"
            },
            "name" : "Scene",
            "nodes" : [
                0
            ]
        }
    ],
    "nodes" : [
        {
            "mesh" : 0,
            "name" : "Axl",
            "rotation" : [
                0.44593384861946106,
                -0.5730525851249695,
                0.5461170077323914,
                0.41774389147758484
            ],
            "scale" : [
                1.2569751739501953,
                1.0195958614349365,
                1.3577171564102173
            ]
        }
    ],
    "materials" : [
        {
            "doubleSided" : true,
            "name" : "default",
            "pbrMetallicRoughness" : {
                "baseColorFactor" : [
                    0.07036014646291733,
                    0.026241213083267212,
                    0.002428218722343445,
                    1
                ],
                "metallicFactor" : 0,
                "roughnessFactor" : 0.5
            }
        }
    ],
    "meshes" : [
        {
            "name" : "Axl",
            "primitives" : [
                {
                    "attributes" : {
                        "POSITION" : 0,
                        "NORMAL" : 1
                    },
                    "indices" : 2,
                    "material" : 0
                }
            ]
        }
    ],
    "accessors" : [
        {
            "bufferView" : 0,
            "componentType" : 5126,
            "count" : 649,
            "max" : [
                0.3408363461494446,
                2.2271482944488525,
                0.27420392632484436
            ],
            "min" : [
                -0.34083643555641174,
                -2.2271482944488525,
                -0.2742038667201996
            ],
            "type" : "VEC3"
        },
        {
            "bufferView" : 1,
            "componentType" : 5126,
            "count" : 649,
            "type" : "VEC3"
        },
        {
            "bufferView" : 2,
            "componentType" : 5123,
            "count" : 2568,
            "type" : "SCALAR"
        }
    ],
    "bufferViews" : [
        {
            "buffer" : 0,
            "byteLength" : 7788,
            "byteOffset" : 0
        },
        {
            "buffer" : 0,
            "byteLength" : 7788,
            "byteOffset" : 7788
        },
        {
            "buffer" : 0,
            "byteLength" : 5136,
            "byteOffset" : 15576
        }
    ],
    "buffers" : [
        {
            "byteLength" : 20712,
            "uri" : "data:application/octet-stream;base64,"
        }
    ]
}
